<svg xmlns="http://www.w3.org/2000/svg" width="83" height="83" viewBox="0 0 83 83">
  <g id="appoIcon2" transform="translate(-642 -436)">
    <rect id="Rectangle_104" data-name="Rectangle 104" width="83" height="83" rx="41.5" transform="translate(642 436)" fill="#f6fcff"/>
    <path id="Path_277" data-name="Path 277" d="M20.672,2a3.66,3.66,0,0,0-2.358.857A3.521,3.521,0,0,0,17.3,6.4H14.07a.734.734,0,0,0-.734.734v.734h-4.4A2.943,2.943,0,0,0,6,10.8V41.614a2.943,2.943,0,0,0,2.934,2.934H32.409a2.943,2.943,0,0,0,2.934-2.934V10.8a2.943,2.943,0,0,0-2.934-2.934h-4.4V7.135a.734.734,0,0,0-.734-.734H24.042A3.521,3.521,0,0,0,23.03,2.857,3.664,3.664,0,0,0,20.672,2Zm0,1.464a2.2,2.2,0,0,1,1.906,3.3.734.734,0,0,0,.635,1.1h3.328v.613a.734.734,0,0,0,0,.241v2.694a.734.734,0,0,0,0,.241v.613H14.8v-.619a.734.734,0,0,0,0-.235v-2.7a.734.734,0,0,0,0-.235V7.869h3.328a.734.734,0,0,0,.635-1.1,2.2,2.2,0,0,1,1.906-3.3Zm0,1.467a.734.734,0,1,0,.734.734A.734.734,0,0,0,20.672,4.931ZM8.934,9.336h4.4V10.8h-2.2a2.213,2.213,0,0,0-2.2,2.2V39.413a2.213,2.213,0,0,0,2.2,2.2H30.209a2.213,2.213,0,0,0,2.2-2.2V13a2.213,2.213,0,0,0-2.2-2.2h-2.2V9.336h4.4A1.448,1.448,0,0,1,33.877,10.8V41.614a1.448,1.448,0,0,1-1.467,1.467H8.934a1.448,1.448,0,0,1-1.467-1.467V10.8A1.448,1.448,0,0,1,8.934,9.336Zm2.2,2.934h2.2V13a.734.734,0,0,0,.734.734h13.2A.734.734,0,0,0,28.008,13V12.27h2.2a.716.716,0,0,1,.734.734V39.413a.716.716,0,0,1-.734.734H11.135a.716.716,0,0,1-.734-.734V13A.716.716,0,0,1,11.135,12.27Zm1.4,4.4a.735.735,0,0,0,.073,1.467h1.445a.734.734,0,1,0,0-1.467H12.614A.734.734,0,0,0,12.539,16.672Zm4.4,0a.735.735,0,1,0,.073,1.467h7.317a.734.734,0,0,0,0-1.467H17.013a.733.733,0,0,0-.073,0Zm-4.4,4.4a.735.735,0,1,0,.073,1.467h1.445a.734.734,0,1,0,0-1.467H12.614A.734.734,0,0,0,12.539,21.073Zm4.4,0a.735.735,0,1,0,.073,1.467h7.317a.734.734,0,0,0,0-1.467H17.013a.733.733,0,0,0-.073,0Zm-4.4,4.4a.735.735,0,1,0,.073,1.467h1.445a.734.734,0,1,0,0-1.467H12.614A.733.733,0,0,0,12.539,25.475Zm4.4,0a.735.735,0,1,0,.073,1.467h7.317a.734.734,0,1,0,0-1.467H17.013a.733.733,0,0,0-.073,0Zm4.468,7.336a1.516,1.516,0,0,0-.983.4,3.6,3.6,0,0,0-.59.631,6.293,6.293,0,0,0-.534.836.734.734,0,0,0,1.3.678,5.129,5.129,0,0,1,.4-.631,2.4,2.4,0,0,1,.326-.354c.044.07.078.125.141.246a3.03,3.03,0,0,0,.4.646,1.269,1.269,0,0,0,2,0,3.109,3.109,0,0,0,.4-.647c.029-.059.04-.069.066-.116.026.047.037.059.066.116a3.03,3.03,0,0,0,.4.646,1.269,1.269,0,0,0,2,0,3.109,3.109,0,0,0,.4-.647c.065-.125.1-.18.144-.249a2.432,2.432,0,0,1,.34.361,5.049,5.049,0,0,1,.412.632.734.734,0,1,0,1.293-.69,6.58,6.58,0,0,0-.543-.836,3.632,3.632,0,0,0-.6-.628,1.522,1.522,0,0,0-.983-.393,1.343,1.343,0,0,0-.986.5,3.237,3.237,0,0,0-.384.632c-.043.082-.062.106-.1.167-.035-.06-.054-.084-.1-.167a3.311,3.311,0,0,0-.384-.632,1.224,1.224,0,0,0-1.972,0,3.237,3.237,0,0,0-.384.632c-.043.082-.062.106-.1.167-.035-.06-.054-.084-.1-.167a3.311,3.311,0,0,0-.384-.632,1.34,1.34,0,0,0-.986-.5Zm-1.53,4.4a.735.735,0,1,0,.073,1.467h8.8a.734.734,0,1,0,0-1.467h-8.8A.733.733,0,0,0,19.875,37.213Z" transform="translate(662.328 454.226)" fill="#0f5278"/>
  </g>
</svg>
