<svg xmlns="http://www.w3.org/2000/svg" width="82" height="83" viewBox="0 0 82 83">
  <g id="appoIcon1" transform="translate(-507 -436)">
    <rect id="Rectangle_104" data-name="Rectangle 104" width="82" height="83" rx="41" transform="translate(507 436)" fill="#f6fcff"/>
    <path id="Path_282" data-name="Path 282" d="M20.949,1.037A20.731,20.731,0,0,0,1.3,18.178a.7.7,0,0,0,1.382.26A19.33,19.33,0,1,1,25.051,40.76a.691.691,0,1,0,.26,1.339A20.7,20.7,0,0,0,22.893,1.037c-.656-.036-1.3-.023-1.944,0Zm.645,2.721a.691.691,0,0,0-.561.691V5.83a.691.691,0,1,0,1.382,0V4.449a.757.757,0,0,0-.819-.691ZM21.681,7.9a.691.691,0,0,0-.648.691V14.12a.691.691,0,0,0,1.382,0V8.594a.691.691,0,0,0-.689-.691h-.043Zm-5.872,8.938c-1.8,0-2.763,1.064-2.763,2.936v1.166h1.771V19.69c0-.835.365-1.166.951-1.166s.949.287.949,1.34c0,3.374-3.67,3.941-3.67,7.382v1.425h5.311v-1.64H14.9a1.256,1.256,0,0,1,0-.26c0-1.921,3.626-3.319,3.626-6.994,0-1.871-.915-2.936-2.719-2.936Zm6.778.13-3.324,7.945v1.64H22.8v2.115h1.814V26.555h.864V24.914h-.864V16.969h-2.03Zm.216,3.54v4.4H20.948Zm3.757.518a.694.694,0,0,0,.13,1.382h8.162a.691.691,0,1,0,0-1.382h-8.16a.691.691,0,0,0-.13,0Zm10.924,0a.694.694,0,0,0,.13,1.382h1.382a.691.691,0,1,0,0-1.382H37.613A.691.691,0,0,0,37.483,21.029ZM1.56,21.719a.691.691,0,0,0-.345.216q0,.022,0,.044a.691.691,0,0,0-.128.128q0,.022,0,.044a.691.691,0,0,0-.044.086q0,.021,0,.043A.691.691,0,0,0,1,22.453,20.343,20.343,0,0,0,20.9,42.4a.6.6,0,0,0,.735-.3q.022-.021.041-.043a.807.807,0,0,0,.044-.518v-6.52a.727.727,0,0,0-.13-.561q0-.022,0-.044h-.043q0-.021,0-.041a.617.617,0,0,0-.561-.217,7.042,7.042,0,0,1-4.275-1.209h-.043q0-.021,0-.043h-.087q0-.022,0-.044a.685.685,0,0,0-.949.3l-.043.044L14.6,35.191a14.733,14.733,0,0,1-6.3-6.3l2.03-1.078a.691.691,0,0,0,.345-.735q0-.021,0-.043a.691.691,0,0,0-.043-.087q0-.021,0-.043-.021-.022-.044-.043a.691.691,0,0,0-.041-.087q0-.021,0-.043a7.005,7.005,0,0,1-1.21-4.275.691.691,0,0,0-.774-.734H1.777a.692.692,0,0,0-.086,0,.691.691,0,0,0-.13,0ZM2.424,23.1h5.57a8.37,8.37,0,0,0,1.08,3.842l-2.03.993a.691.691,0,0,0-.173.13q-.022.02-.043.043a.691.691,0,0,0-.087.13q0,.021,0,.043a.691.691,0,0,0-.043.087q0,.021,0,.041a.691.691,0,0,0,0,.174q0,.021,0,.043a.691.691,0,0,0,0,.087q0,.021,0,.041a.691.691,0,0,0,.043.087c.006.012-.006.032,0,.044a.691.691,0,0,0,.13.173,16.117,16.117,0,0,0,7.514,7.512.691.691,0,0,0,.171.13c.012.006.032-.006.044,0a.691.691,0,0,0,.13.086h.041a.69.69,0,0,0,.087,0H14.9a.69.69,0,0,0,.087,0,.691.691,0,0,0,.087-.043h.041a.691.691,0,0,0,.174-.087h.043a.691.691,0,0,0,.13-.173q0-.021,0-.041.022-.021.043-.044l1.036-1.943a8.356,8.356,0,0,0,3.8,1.036v5.482A18.947,18.947,0,0,1,2.425,23.1Z" transform="translate(526.001 455.985)" fill="#0f5278"/>
  </g>
</svg>
