<svg xmlns="http://www.w3.org/2000/svg" width="82" height="83" viewBox="0 0 82 83">
  <g id="appoIcon3" transform="translate(-778 -436)">
    <rect id="Rectangle_104" data-name="Rectangle 104" width="82" height="83" rx="41" transform="translate(778 436)" fill="#f6fcff"/>
    <path id="Path_283" data-name="Path 283" d="M48.168,21.962l.086-.521H50.5a1.742,1.742,0,1,0,0-3.484H46.777a1.736,1.736,0,0,0-1.718,1.457L44.32,23.87a1.74,1.74,0,0,0,2.509,1.837l.053-.025a2.415,2.415,0,0,1,1.221-.237,1.292,1.292,0,1,1-1,2.107,1.742,1.742,0,1,0-2.7,2.2,4.758,4.758,0,0,0,3.7,1.762h.1a4.79,4.79,0,0,0,4.672-4.523,4.736,4.736,0,0,0-1.306-3.539,4.8,4.8,0,0,0-3.4-1.488Zm3.546,4.967a3.625,3.625,0,0,1-3.534,3.422H48.1a3.6,3.6,0,0,1-2.8-1.333.581.581,0,0,1,.9-.733,2.453,2.453,0,1,0,1.9-4,3.524,3.524,0,0,0-1.7.339c-.056.025-.091.043-.1.05a.579.579,0,0,1-.835-.613L46.2,19.6a.579.579,0,0,1,.573-.486H50.5a.581.581,0,0,1,0,1.161H47.762a.581.581,0,0,0-.573.486l-.282,1.7a.581.581,0,0,0,.618.674q.289-.022.579-.021a3.63,3.63,0,0,1,2.621,1.126A3.586,3.586,0,0,1,51.713,26.929ZM58.39,2.653H55.907V1.766A1.768,1.768,0,0,0,54.142,0h-.267a1.768,1.768,0,0,0-1.766,1.766v.888H45.361V1.766A1.768,1.768,0,0,0,43.595,0h-.267a1.768,1.768,0,0,0-1.766,1.766v.888H34.814V1.766A1.768,1.768,0,0,0,33.048,0h-.267a1.768,1.768,0,0,0-1.766,1.766v.888H28.533a2.91,2.91,0,0,0-2.907,2.907V36.736a2.906,2.906,0,0,0,2.9,2.9H58.394a2.906,2.906,0,0,0,2.9-2.9V5.561A2.91,2.91,0,0,0,58.39,2.653Zm-5.119-.888a.605.605,0,0,1,.6-.6h.267a.605.605,0,0,1,.6.6v.888H53.271Zm-10.547,0a.605.605,0,0,1,.6-.6h.267a.605.605,0,0,1,.6.6v.888H42.724Zm-10.547,0a.605.605,0,0,1,.6-.6h.267a.605.605,0,0,1,.6.6v.888H32.177Zm27.959,9.186H55.17a.581.581,0,1,0,0,1.161h4.966V36.736a1.744,1.744,0,0,1-1.742,1.742H28.529a1.744,1.744,0,0,1-1.742-1.742V12.113h26.06a.581.581,0,0,0,0-1.161H26.787V5.561a1.748,1.748,0,0,1,1.746-1.746h2.483V5.522a1.768,1.768,0,0,0,1.766,1.766.581.581,0,0,0,0-1.161.605.605,0,0,1-.6-.6V3.815h9.385V5.522a1.768,1.768,0,0,0,1.766,1.766.581.581,0,1,0,0-1.161.605.605,0,0,1-.6-.6V3.815h9.386V5.522a1.768,1.768,0,0,0,1.766,1.766.581.581,0,1,0,0-1.161.605.605,0,0,1-.6-.6V3.815H58.39a1.748,1.748,0,0,1,1.746,1.746ZM41.24,28.007,39.546,28c.463-.658,1-1.417,1.592-2.269a8.142,8.142,0,0,0,1.324-2.759c.013-.057.024-.115.031-.173l.049-.384a1.747,1.747,0,0,0,.014-.221,4.281,4.281,0,0,0-8.48-.828,1.742,1.742,0,0,0,3.419.671.8.8,0,0,1,1.574.076l-.018.142a5.019,5.019,0,0,1-.767,1.476l-.433.618a.581.581,0,0,0,.951.667l.433-.619a6.026,6.026,0,0,0,.949-1.888.584.584,0,0,0,.013-.069l.03-.236a.58.58,0,0,0,0-.1,1.958,1.958,0,0,0-3.876-.291.581.581,0,0,1-1.14-.224,3.119,3.119,0,0,1,6.179.6.586.586,0,0,1,0,.074l-.049.384a.583.583,0,0,1-.01.058,7.009,7.009,0,0,1-1.144,2.355q-1.113,1.591-2.231,3.178a.581.581,0,0,0,.473.915l2.809.009a.581.581,0,1,1,0,1.161l-5.055-.016a.581.581,0,0,1-.457-.937c.031-.041.521-.718,1.776-2.5a.581.581,0,1,0-.949-.669c-1.3,1.842-1.726,2.431-1.755,2.47a1.742,1.742,0,0,0,1.381,2.8l5.06.016a1.742,1.742,0,1,0,.005-3.484Z" transform="translate(775.374 458)" fill="#0f5278"/>
  </g>
</svg>
