<svg xmlns="http://www.w3.org/2000/svg" width="60" height="60" viewBox="0 0 60 60">
  <g id="bp3" transform="translate(-1157 -1160)">
    <g id="Path_279" data-name="Path 279" transform="translate(1157 1160)" fill="#f6fcff">
      <path d="M 30 59.75 C 25.98366928100586 59.75 22.08760070800781 58.96345138549805 18.42004013061523 57.41220092773438 C 14.87745952606201 55.913818359375 11.69583988189697 53.7686882019043 8.963569641113281 51.03643035888672 C 6.23130989074707 48.30416107177734 4.086180210113525 45.12253952026367 2.587800025939941 41.57995986938477 C 1.036550045013428 37.91239929199219 0.25 34.01633071899414 0.25 30 C 0.25 25.98366928100586 1.036550045013428 22.08760070800781 2.587800025939941 18.42004013061523 C 4.086180210113525 14.87745952606201 6.23130989074707 11.69583988189697 8.963569641113281 8.963569641113281 C 11.69583988189697 6.23130989074707 14.87745952606201 4.086180210113525 18.42004013061523 2.587800025939941 C 22.08760070800781 1.036550045013428 25.98366928100586 0.25 30 0.25 C 34.01633071899414 0.25 37.91239929199219 1.036550045013428 41.57995986938477 2.587800025939941 C 45.12253952026367 4.086180210113525 48.30416107177734 6.23130989074707 51.03643035888672 8.963569641113281 C 53.7686882019043 11.69583988189697 55.913818359375 14.87745952606201 57.41220092773438 18.42004013061523 C 58.96345138549805 22.08760070800781 59.75 25.98366928100586 59.75 30 C 59.75 34.01633071899414 58.96345138549805 37.91239929199219 57.41220092773438 41.57995986938477 C 55.913818359375 45.12253952026367 53.7686882019043 48.30416107177734 51.03643035888672 51.03643035888672 C 48.30416107177734 53.7686882019043 45.12253952026367 55.913818359375 41.57995986938477 57.41220092773438 C 37.91239929199219 58.96345138549805 34.01633071899414 59.75 30 59.75 Z" stroke="none"/>
      <path d="M 30 0.5 C 26.01731109619141 0.5 22.15401077270508 1.279911041259766 18.51742172241211 2.818050384521484 C 15.004638671875 4.303829193115234 11.84973907470703 6.430961608886719 9.140350341796875 9.140350341796875 C 6.430961608886719 11.84973907470703 4.303829193115234 15.004638671875 2.818050384521484 18.51742172241211 C 1.279911041259766 22.15401077270508 0.5 26.01731109619141 0.5 30 C 0.5 33.98268890380859 1.279911041259766 37.84598922729492 2.818050384521484 41.48258209228516 C 4.303829193115234 44.995361328125 6.430961608886719 48.15026092529297 9.140350341796875 50.85964965820312 C 11.84973907470703 53.56903839111328 15.004638671875 55.69617080688477 18.51742172241211 57.18194961547852 C 22.15401077270508 58.72008895874023 26.01731109619141 59.5 30 59.5 C 33.98268890380859 59.5 37.84598922729492 58.72008895874023 41.48258209228516 57.18194961547852 C 44.995361328125 55.69617080688477 48.15026092529297 53.56903839111328 50.85964965820312 50.85964965820312 C 53.56903839111328 48.15026092529297 55.69617080688477 44.995361328125 57.18194961547852 41.48258209228516 C 58.72008895874023 37.84598922729492 59.5 33.98268890380859 59.5 30 C 59.5 26.01731109619141 58.72008895874023 22.15401077270508 57.18194961547852 18.51742172241211 C 55.69617080688477 15.004638671875 53.56903839111328 11.84973907470703 50.85964965820312 9.140350341796875 C 48.15026092529297 6.430961608886719 44.995361328125 4.303829193115234 41.48258209228516 2.818050384521484 C 37.84598922729492 1.279911041259766 33.98268890380859 0.5 30 0.5 M 30 0 C 46.56853866577148 0 60 13.43146133422852 60 30 C 60 46.56853866577148 46.56853866577148 60 30 60 C 13.43146133422852 60 0 46.56853866577148 0 30 C 0 13.43146133422852 13.43146133422852 0 30 0 Z" stroke="none" fill="#a7c1d3"/>
    </g>
    <text id="_3" data-name="3" transform="translate(1179.5 1201.5)" fill="#0f5278" font-size="30" font-family="Segoe UI Variable Display"><tspan x="0" y="0">3</tspan></text>
  </g>
</svg>
