<svg id="Brain" xmlns="http://www.w3.org/2000/svg" width="91.015" height="63.806" viewBox="0 0 91.015 63.806">
  <path id="Path_18" data-name="Path 18" d="M52.195,64.669a21.628,21.628,0,0,1-5.144-.623c-6.3-1.553-8.853-4.488-9.871-6.386-4.041.823-14.863,2.071-19.359-6.925a9.733,9.733,0,0,1,1.771-12.07,12.843,12.843,0,0,1,9.077-3.533,11.19,11.19,0,0,1,5.768-5.465c3.152-1.177,6.766-.573,10.743,1.793a1.726,1.726,0,1,1-1.764,2.967c-3.024-1.8-5.632-2.32-7.748-1.535a8.5,8.5,0,0,0-4.375,4.821,1.726,1.726,0,0,1-2.487.956c-.754-.425-4.315.1-6.835,2.5a6.252,6.252,0,0,0-1.062,8.023c4.17,8.345,16.711,4.823,16.839,4.788a1.726,1.726,0,0,1,2.19,1.414c.022.1.787,3.537,7.94,5.3,5.546,1.367,10.762-.112,12.6-2.33a3.248,3.248,0,0,0,.33-3.716A1.726,1.726,0,1,1,63.944,53.2a6.661,6.661,0,0,1-.8,7.358c-2.168,2.618-6.362,4.111-10.945,4.111Z" transform="translate(2.241 -2.211)" fill="#0f5278"/>
  <path id="Path_19" data-name="Path 19" d="M23.437,60.092a18.123,18.123,0,0,1-10.8-3.319c-3.918-2.922-6.241-7.567-6.9-13.808-1.1-10.332,7.034-15.006,12.326-16.3.822-2.681,3.576-9.177,11.179-10.261a26.122,26.122,0,0,1,13.5,1.505c2.161-2.63,6.878-5.656,14.2-3.847,7.177,1.769,9.975,4.678,11.047,6.5,4-.468,15.312-.609,19.582,11.488,2.82,7.99-1.108,11.164-2.934,12.16-4.691,2.563-11.863.708-14.442-2.611-4.47-5.744-1.448-9.738-1.317-9.906a1.726,1.726,0,1,1,2.717,2.128c-.033.052-1.426,2.125,1.324,5.658,1.643,2.114,7.02,3.362,10.063,1.7,2.872-1.569,2.306-5.207,1.327-7.981-4.167-11.8-16.465-9.167-16.982-9.051a1.726,1.726,0,0,1-2.083-1.372s-1.017-3.359-9.148-5.363-11.136,3.279-11.261,3.5a1.736,1.736,0,0,1-2.375.678A21.91,21.91,0,0,0,29.7,19.821c-6.961.994-8.513,8.34-8.577,8.651a1.726,1.726,0,0,1-1.407,1.369c-.475.083-11.7,2.152-10.575,12.761.575,5.237,2.432,9.069,5.534,11.394a15.857,15.857,0,0,0,11.107,2.484,1.727,1.727,0,0,1,.625,3.4,17.836,17.836,0,0,1-2.972.217Z" transform="translate(-5.633 -13.514)" fill="#0f5278"/>
  <path id="Path_20" data-name="Path 20" d="M53.274,56.517h-.036a1.726,1.726,0,0,1-1.688-1.762,1.692,1.692,0,0,1,1.762-1.688c.155,0,4.6-.185,6.314-8.644,1.783-8.8-7.09-13.793-7.182-13.841a1.727,1.727,0,0,1,1.662-3.027c3.877,2.128,10.727,8.533,8.9,17.554-2.256,11.145-9.1,11.409-9.735,11.409Z" transform="translate(27.703 -3.476)" fill="#0f5278"/>
  <path id="Path_21" data-name="Path 21" d="M59.311,73.886a24.637,24.637,0,0,1-10.575-2.976,1.726,1.726,0,1,1,1.692-3.01c.067.038,6.863,3.8,11.6,2.113a6.178,6.178,0,0,0,3.709-3.847,11.135,11.135,0,0,0-.518-10.48,12.9,12.9,0,0,0-10.372-5.428,1.728,1.728,0,1,1,.173-3.452,16.345,16.345,0,0,1,13.1,7.011,14.63,14.63,0,0,1,.816,13.622,9.569,9.569,0,0,1-5.774,5.829,11.53,11.53,0,0,1-3.851.62ZM31.174,30.931a1.726,1.726,0,0,1-.475-3.386,3.473,3.473,0,0,0,2.544-2.087,5.228,5.228,0,0,0-.965-4.5,1.726,1.726,0,1,1,2.838-1.966A8.566,8.566,0,0,1,36.5,26.619a6.9,6.9,0,0,1-4.843,4.244A1.681,1.681,0,0,1,31.174,30.931Z" transform="translate(11.655 -10.081)" fill="#0f5278"/>
  <path id="Path_22" data-name="Path 22" d="M44.425,37.946A1.726,1.726,0,0,1,42.7,36.275C42.354,25.7,35.678,25.1,35.393,25.084a1.726,1.726,0,0,1,.193-3.447c.1,0,10.12.678,10.562,14.528a1.726,1.726,0,0,1-1.669,1.78ZM32.683,56.958a1.726,1.726,0,0,1-1.426-2.7,5.361,5.361,0,0,0,1.208-4.315A4.469,4.469,0,0,0,29.876,47.7a1.727,1.727,0,1,1,1.018-3.3,7.9,7.9,0,0,1,4.833,4.4,8.192,8.192,0,0,1-1.607,7.393,1.726,1.726,0,0,1-1.438.766Z" transform="translate(11.085 -7.619)" fill="#0f5278"/>
  <path id="Path_23" data-name="Path 23" d="M59.869,58.738A1.726,1.726,0,0,1,58.2,57.445a6.619,6.619,0,0,0-3.295-4.679c-3.021-1.431-7,.381-7.039.4A1.726,1.726,0,1,1,46.4,50.041c.221-.105,5.459-2.517,9.957-.407a9.866,9.866,0,0,1,5.178,6.944,1.726,1.726,0,0,1-1.673,2.161ZM12.739,42.776a1.688,1.688,0,0,1-.7-.152,1.726,1.726,0,0,1-.875-2.265,7.745,7.745,0,0,1,4.94-4.251c2.311-.485,4.757.445,7.249,2.762a1.726,1.726,0,1,1-2.344,2.536,5.511,5.511,0,0,0-4.194-1.914,4.217,4.217,0,0,0-2.5,2.277,1.736,1.736,0,0,1-1.572,1.008ZM32.826,31.7a1.726,1.726,0,0,1-.832-.214,7.841,7.841,0,0,1-4.315-5.237A8.661,8.661,0,0,1,29.352,19.8a1.726,1.726,0,0,1,2.718,2.125,5.187,5.187,0,0,0-1,3.649,4.619,4.619,0,0,0,2.589,2.884,1.726,1.726,0,0,1-.834,3.238Z" transform="translate(-1.722 -9.398)" fill="#0f5278"/>
  <path id="Path_24" data-name="Path 24" d="M15.479,37.538h-.048a1.726,1.726,0,0,1-1.678-1.764A14.055,14.055,0,0,1,27.216,21.8a1.729,1.729,0,1,1,.216,3.452c-9.807.614-10.218,10.208-10.23,10.617a1.726,1.726,0,0,1-1.723,1.667Z" transform="translate(0.263 -7.5)" fill="#0f5278"/>
</svg>
