<svg xmlns="http://www.w3.org/2000/svg" width="10.672" height="10.672" viewBox="0 0 10.672 10.672">
  <path id="call_icon" d="M10.48,9.246a2.517,2.517,0,0,1-2.542,1.417,8.107,8.107,0,0,1-3.67-1.518,12.087,12.087,0,0,1-3.8-4.529A3.8,3.8,0,0,1,.627.677,1.509,1.509,0,0,1,1.83,0c.731-.036.834.383,1.085,1.034.187.487.437.985.576,1.49.261.943-.652.982-.767,1.752-.071.486.517,1.138.783,1.484a7.189,7.189,0,0,0,1.855,1.71c.406.255,1.059.716,1.523.462.714-.391.647-1.6,1.646-1.188a16.072,16.072,0,0,1,1.512.78c.763.411.728.836.437,1.72h0" transform="translate(0)" fill="#fff" fill-rule="evenodd"/>
</svg>
