<svg xmlns="http://www.w3.org/2000/svg" width="11.739" height="15.652" viewBox="0 0 11.739 15.652">
  <path id="Path_26" data-name="Path 26" d="M12.6,6.891h-.01l-.035-.007h-.007a2.944,2.944,0,0,0-.482-.037h-.734V6.114c0-.006,0-.01,0-.016a2,2,0,0,0,.918-1.463l.195-1.756a2.593,2.593,0,1,0-5.155,0l.195,1.756A2,2,0,0,0,8.405,6.1c0,.005,0,.01,0,.016v.734H7.668a2.916,2.916,0,0,0-.483.036H7.179l-.028.006H7.145A3.677,3.677,0,0,0,4,10.516V13.94a1.714,1.714,0,0,0,1.712,1.712h8.315a1.714,1.714,0,0,0,1.712-1.712V10.516A3.674,3.674,0,0,0,12.6,6.891ZM12.56,11.25a.734.734,0,1,1-.734.734A.734.734,0,0,1,12.56,11.25ZM7.778,2.826a2.1,2.1,0,1,1,4.183-.21,4.988,4.988,0,0,1-.924-.72.245.245,0,0,0-.3-.035A9.383,9.383,0,0,1,8.349,2.9c-.2.054-.38.095-.548.13Zm.077.693c.189-.039.39-.085.621-.146a9.8,9.8,0,0,0,2.356-1,5.2,5.2,0,0,0,1.092.777l-.087.781a8.832,8.832,0,0,1-1.968.225h0A8.818,8.818,0,0,1,7.9,3.932Zm.118,1.063-.015-.138a9.3,9.3,0,0,0,1.909.2h0a9.31,9.31,0,0,0,1.912-.2l-.015.138a1.509,1.509,0,0,1-.749,1.14l-.69.394a.923.923,0,0,1-.914,0l-.69-.394a1.509,1.509,0,0,1-.749-1.14ZM9.625,15.163H5.712A1.224,1.224,0,0,1,4.489,13.94V10.516A3.18,3.18,0,0,1,6.935,7.44V9.826a1.225,1.225,0,0,0-.978,1.2v1.938a.244.244,0,0,0,.245.245H6.69a.245.245,0,0,0,0-.489H6.446V11.024a.734.734,0,1,1,1.467,0v1.693H7.668a.245.245,0,0,0,0,.489h.489a.244.244,0,0,0,.245-.245V11.024a1.225,1.225,0,0,0-.978-1.2V7.346c.075-.006.156-.009.245-.009h.743a1.219,1.219,0,0,0,.274.673l.62.745a.729.729,0,0,0,.319.218ZM9.87,8.529a.242.242,0,0,1-.188-.088L9.061,7.7a.734.734,0,0,1-.17-.47V6.382l.278.159a1.415,1.415,0,0,0,1.4,0l.278-.159v.845a.735.735,0,0,1-.17.47l-.62.744A.242.242,0,0,1,9.87,8.529Zm5.38,5.411a1.224,1.224,0,0,1-1.223,1.223H10.114V8.972a.729.729,0,0,0,.319-.218l.62-.744a1.221,1.221,0,0,0,.274-.673h.743c.088,0,.169,0,.245.009v3.439a1.223,1.223,0,1,0,.489,0V7.44a3.179,3.179,0,0,1,2.446,3.076Z" transform="translate(-4 0)" fill="#abadac"/>
</svg>
