<svg xmlns="http://www.w3.org/2000/svg" width="15" height="15" viewBox="0 0 15 15">
  <g id="downloadpdf" transform="translate(-815.5 -514)">
    <path id="Path_284" data-name="Path 284" d="M16.25,11a.75.75,0,0,0-.75.75v3a.75.75,0,0,1-.75.75H4.25a.75.75,0,0,1-.75-.75v-3a.75.75,0,0,0-1.5,0v3A2.25,2.25,0,0,0,4.25,17h10.5A2.25,2.25,0,0,0,17,14.75v-3A.75.75,0,0,0,16.25,11ZM8.967,12.283a.75.75,0,0,0,.248.158.7.7,0,0,0,.57,0,.75.75,0,0,0,.248-.157l3-3a.753.753,0,0,0-1.065-1.065L10.25,9.943V2.75a.75.75,0,0,0-1.5,0V9.943L7.033,8.217A.753.753,0,0,0,5.967,9.283Z" transform="translate(813.5 512)" fill="#f6fcff"/>
  </g>
</svg>
