<svg id="facebook_icon" xmlns="http://www.w3.org/2000/svg" width="25.856" height="25.856" viewBox="0 0 25.856 25.856">
  <path id="Path_60" data-name="Path 60" d="M24.136,11.166A12.928,12.928,0,1,0,37.064,24.094,12.943,12.943,0,0,0,24.136,11.166Zm0,24.581A11.653,11.653,0,1,1,35.789,24.094,11.666,11.666,0,0,1,24.136,35.747Z" transform="translate(-11.208 -11.166)" fill="#fff"/>
  <path id="Path_61" data-name="Path 61" d="M60.9,36.3H57.931c-2.98.009-3.369,1.912-3.371,3.576a.192.192,0,0,0-.006.048V41.1h-2.04a.215.215,0,0,0-.224.2v2.881a.215.215,0,0,0,.224.2h2.04v6.322a.215.215,0,0,0,.224.2h2.977a.215.215,0,0,0,.224-.2V44.388H60.9a.215.215,0,0,0,.224-.2V41.3a.215.215,0,0,0-.224-.2H57.754V39.549H60.9a.215.215,0,0,0,.224-.2V36.509a.2.2,0,0,0-.065-.145A.234.234,0,0,0,60.9,36.3Z" transform="translate(-43.78 -30.681)" fill="#fff"/>
</svg>
