<svg xmlns="http://www.w3.org/2000/svg" width="72.84" height="82.704" viewBox="0 0 72.84 82.704">
  <path id="Path_25" data-name="Path 25" d="M21.845,37.148l1.522,1.721Zm50-2.011-1.522,1.721ZM31.913,23.28l1.3,1.9a2.3,2.3,0,0,0,.5-3.327ZM26.379,16.34,25.14,14.4a2.3,2.3,0,0,0-.558,3.367Zm7.748-4.957,1.8-1.432a2.3,2.3,0,0,0-3.034-.5Zm5.534,6.941-1.8,1.432a2.3,2.3,0,0,0,2.771.648Zm6.346-2.975.975,2.08a2.3,2.3,0,0,0,1.322-2.08Zm0-7.051V6a2.3,2.3,0,0,0-2.3,2.3Zm9.888,0h2.3a2.3,2.3,0,0,0-2.3-2.3Zm0,7.051H53.6a2.3,2.3,0,0,0,1.195,2.015ZM19.487,38.23l-1.981,1.163a2.3,2.3,0,0,0,3.254.749ZM10.3,32.1,8.04,31.676a2.3,2.3,0,0,0,1.894,2.7Zm2.057-10.861.648-2.2A2.3,2.3,0,0,0,10.1,20.816Zm16.321,12.4.852,2.133a2.3,2.3,0,0,0,1.426-2.43Zm33.505-1.826.965,2.085ZM42.818,36.795l-2.06-1.017-1.212,2.454L42.173,39ZM56.824,22.506l-.965-2.085ZM78.46,19.315l2.3.085.085-2.3-2.3-.079Zm-.4,10.916-.079,2.3,2.291.079.084-2.29Zm-23.646,8.7-1.944-1.223Zm-3.078,1.02-.9,2.114ZM48.739,61.8l2.108-.912h0Zm-.628-9.173,2.213.616Zm-27.788-17.2c-4.606,4.074-6.331,9.639-6.136,15.432.193,5.747,2.266,11.826,5.375,17.326a49.8,49.8,0,0,0,12.044,14.3c4.66,3.694,9.983,6.214,15.242,6.214V84.11c-3.833,0-8.17-1.877-12.388-5.22a45.219,45.219,0,0,1-10.9-12.964A34.359,34.359,0,0,1,18.779,50.7c-.16-4.763,1.239-8.873,4.589-11.836ZM46.848,88.7c5.246,0,10.7-2.508,15.539-6.22a50.541,50.541,0,0,0,12.6-14.518c6.425-11.1,8.77-25.364-1.616-34.55l-3.044,3.441c7.834,6.929,6.769,18.3.684,28.806A45.955,45.955,0,0,1,59.589,78.84c-4.405,3.383-8.894,5.269-12.741,5.269ZM73.372,33.417a15.039,15.039,0,0,0-3.469-2.34c-1.083-.547-2.086-.984-3.705-1.939L63.864,33.1c1.79,1.056,3.061,1.624,3.966,2.082a10.488,10.488,0,0,1,2.5,1.681ZM44.324,34.83a49.865,49.865,0,0,0-12.137-2.46c-4.168-.239-8.743.3-11.864,3.056l3.044,3.441c1.712-1.514,4.707-2.131,8.556-1.911A45.326,45.326,0,0,1,42.894,39.2ZM33.709,21.848l-5.534-6.941-3.593,2.865,5.534,6.94Zm-6.092-3.573,7.748-4.957-2.476-3.87L25.14,14.4Zm4.713-5.46,5.534,6.94,3.592-2.865L35.923,9.95ZM40.636,20.4l6.346-2.975-1.95-4.16-6.346,2.974ZM48.3,15.348V8.3H43.71v7.051Zm-2.3-4.753h9.888V6H46.007ZM53.6,8.3v7.051h4.595V8.3Zm2.3,7.051c-1.1,2.015-1.1,2.015-1.1,2.015h-.007l.007,0,.057.033c.056.033.147.088.267.165.24.154.594.395,1.012.72A15.334,15.334,0,0,1,59,21.188l3.686-2.743a19.927,19.927,0,0,0-3.736-3.792c-.541-.42-1.008-.739-1.349-.958-.17-.11-.31-.194-.412-.255l-.124-.072-.04-.022-.014-.008-.005,0h0S57,13.333,55.895,15.348ZM29.739,30.487a10.673,10.673,0,0,1,2.188-4.077,9.537,9.537,0,0,1,.977-.985c.12-.1.212-.176.267-.218l.052-.039,0,0-.005,0,0,0,0,0h0s0,0-1.3-1.894-1.3-1.894-1.3-1.894h0l0,0-.008.005-.018.013-.051.036c-.039.028-.09.066-.151.113-.122.093-.285.224-.479.391a14.089,14.089,0,0,0-1.455,1.465,15.265,15.265,0,0,0-3.131,5.834ZM19.487,38.23c1.981-1.163,1.981-1.164,1.98-1.165v0l0,0-.006-.009-.014-.024-.043-.07c-.035-.056-.082-.13-.142-.22-.12-.181-.291-.426-.514-.718a17.037,17.037,0,0,0-1.981-2.17,15.575,15.575,0,0,0-8.1-4.014l-.726,4.537a10.982,10.982,0,0,1,5.714,2.853,12.423,12.423,0,0,1,1.444,1.58c.157.205.269.368.339.473.034.052.058.089.071.109l.01.017v0l0,0v0h0S17.506,39.393,19.487,38.23Zm-6.932-5.7,2.057-10.861L10.1,20.816,8.04,31.676Zm-.2-11.288c-.649,2.2-.649,2.2-.649,2.2h0l.025.007.111.034c.1.031.253.079.45.144.394.13.965.326,1.657.586a43.448,43.448,0,0,1,5.1,2.287,22.709,22.709,0,0,1,5.045,3.514A6.943,6.943,0,0,1,26.4,33.939l4.556-.593a11.452,11.452,0,0,0-3.662-6.621,27.218,27.218,0,0,0-6.08-4.27,48.074,48.074,0,0,0-5.644-2.535c-.758-.285-1.39-.5-1.836-.649-.223-.074-.4-.13-.524-.168l-.145-.045-.041-.012-.012,0H13S13,19.039,12.355,21.243ZM27.824,31.509a65.609,65.609,0,0,0-7,3.27c-.824.449-1.466.825-1.907,1.094-.221.134-.392.241-.51.317l-.139.089-.04.026-.012.008,0,0h0s0,0,1.272,1.913,1.273,1.913,1.272,1.913h0l0,0,.02-.013.1-.064c.092-.059.235-.149.427-.265.384-.233.963-.574,1.718-.985a61.061,61.061,0,0,1,6.5-3.038Zm28.533,8.644A15.439,15.439,0,0,1,63.146,33.9l-1.93-4.17a20.012,20.012,0,0,0-8.749,7.975ZM42.173,39a81.586,81.586,0,0,1,8.262,3.064l1.8-4.228a85.952,85.952,0,0,0-8.771-3.246ZM55.859,20.421c-6.723,3.112-11.285,7.63-15.1,15.356l4.12,2.035c3.4-6.892,7.244-10.6,12.912-13.221Zm22.68-3.4c-8.621-.3-16.2.4-22.68,3.4l1.93,4.17c5.506-2.549,12.226-3.269,20.591-2.98Zm1.815,13.3.4-10.916-4.591-.169-.4,10.916ZM63.146,33.9c2.981-1.38,6.923-1.647,14.832-1.374l.159-4.592c-7.764-.268-12.8-.111-16.921,1.8ZM52.468,37.707a.3.3,0,0,1-.154.124.108.108,0,0,1-.08.006l-1.8,4.228a4.808,4.808,0,0,0,5.923-1.91ZM46.63,62.717l.948,2.19,4.217-1.825-.948-2.19Zm.764,1.434.643,9.426,4.584-.313-.643-9.427Zm2.557,2.126,9.777-1.135-.53-4.564-9.777,1.135Zm1.91-27.929L46.512,49.921l4.171,1.928,5.349-11.573ZM46.384,50.268,45.9,52.015l4.426,1.233.487-1.747Zm1.267-1.477-10,4.522L39.545,57.5l10-4.522ZM39.125,53.17l-9.963-2.347L28.109,55.3l9.963,2.347Zm-2.663,1.391-3.4,8.588,4.273,1.69,3.4-8.588Zm14.385,6.331a11.488,11.488,0,0,1-.523-7.644L45.9,52.015a16.08,16.08,0,0,0,.732,10.7Z" transform="translate(-8 -6)" fill="#0f5278"/>
</svg>
