<svg id="insta_light" xmlns="http://www.w3.org/2000/svg" width="25.853" height="25.852" viewBox="0 0 25.853 25.852">
  <path id="Path_64" data-name="Path 64" d="M38.094,19.856A12.924,12.924,0,1,0,41.881,29,12.865,12.865,0,0,0,38.094,19.856Zm-.708,17.571A11.931,11.931,0,1,1,40.871,29,11.9,11.9,0,0,1,37.386,37.427Z" transform="translate(-16.028 -16.07)" fill="#fff"/>
  <path id="Path_65" data-name="Path 65" d="M182.557,178.416a4.18,4.18,0,1,0,4.18,4.18A4.185,4.185,0,0,0,182.557,178.416Zm0,7.494a3.314,3.314,0,1,1,3.314-3.314A3.31,3.31,0,0,1,182.557,185.91Z" transform="translate(-169.631 -169.67)" fill="#fff"/>
  <path id="Path_66" data-name="Path 66" d="M144.938,136H138.1a3.1,3.1,0,0,0-3.1,3.051v6.835a2.96,2.96,0,0,0,3.1,2.882h6.835a2.953,2.953,0,0,0,3.1-2.882v-6.835A3.087,3.087,0,0,0,144.938,136Zm2.345,9.886a2.2,2.2,0,0,1-2.345,2.128H138.1a2.159,2.159,0,0,1-2.295-2.128v-6.835a2.3,2.3,0,0,1,2.295-2.3h6.835a2.341,2.341,0,0,1,2.345,2.3Z" transform="translate(-128.59 -129.539)" fill="#fff"/>
  <path id="Path_67" data-name="Path 67" d="M320.272,167.921a.673.673,0,1,0,.673.673A.672.672,0,0,0,320.272,167.921Z" transform="translate(-303.244 -159.74)" fill="#fff"/>
</svg>
