<svg xmlns="http://www.w3.org/2000/svg" width="174.12" height="37.28" viewBox="0 0 174.12 37.28">
  <g id="logo_light" transform="translate(-77.88 -1175.604)">
    <g id="Group_352" data-name="Group 352">
      <g id="Group_351" data-name="Group 351" transform="translate(-11674 -672)">
        <path id="Path_564" data-name="Path 564" d="M58.25,18.23V47.35c0,2.25-.77,4.08-1.73,4.08h-42c-.96,0-1.74-1.83-1.74-4.08V18.23c0-2.26.78-4.08,1.74-4.08h42C57.48,14.15,58.25,15.98,58.25,18.23Z" transform="translate(11739.1 1833.454)" fill="#fff"/>
        <g id="Group_351_1_" transform="translate(11829.729 1879.482)">
          <g id="Group_350_1_">
            <path id="Path_503_1_" d="M-43-17.55h-7.12V-25.1a2.189,2.189,0,0,0-2.19-2.19H-59.6a2.189,2.189,0,0,0-2.19,2.19v7.55h-7.12a2.189,2.189,0,0,0-2.19,2.19v7.29a2.189,2.189,0,0,0,2.19,2.19h7.12V1.67A2.189,2.189,0,0,0-59.6,3.86h7.29a2.189,2.189,0,0,0,2.19-2.19h0V-4.91h-1.41V1.67a.781.781,0,0,1-.78.78H-59.6a.781.781,0,0,1-.78-.78V-7.3h-8.53a.781.781,0,0,1-.78-.78v-7.29a.781.781,0,0,1,.78-.78h8.53v-8.96a.781.781,0,0,1,.78-.78h7.29a.781.781,0,0,1,.78.78v8.96H-43a.781.781,0,0,1,.78.78v3.64h1.41v-3.64A2.187,2.187,0,0,0-43-17.55Z" fill="#105379"/>
          </g>
        </g>
        <g id="Group_353_1_" transform="translate(11843.886 1891.755)">
          <path id="Path_565" data-name="Path 565" d="M-46.54-21.08v1.42H-59.15l-.92,6.24a.705.705,0,0,1-.72.61.719.719,0,0,1-.71-.6l-1.65-10.53-1.62,3.85a.707.707,0,0,1-.67.43H-71.1v-1.42h5.18l2.43-5.76a.726.726,0,0,1,.75-.43.7.7,0,0,1,.63.59l1.3,8.35.32-2.14a.72.72,0,0,1,.71-.61Z" fill="#105379"/>
        </g>
        <path id="Path_505_1_" d="M-54.83-11.99h-3.1v-8.66c0-.47.01-.94.03-1.46s.05-1.05.1-1.6h-.08c-.08.43-.16.8-.23,1.11-.06.26-.13.51-.21.76l-3.48,9.85h-2.52l-3.52-9.76c-.04-.14-.11-.36-.19-.69s-.17-.75-.27-1.27h-.1c.05.68.08,1.31.11,1.93s.02,1.19.02,1.73v8.07H-71.1V-26.34h4.56l3.03,8.62a6.583,6.583,0,0,1,.31.95c.08.32.15.63.22.93h.06c.1-.37.19-.71.29-1.03s.19-.6.29-.88l3.03-8.6h4.46v14.36Z" transform="translate(11873.707 1879.482)" fill="#fff"/>
        <path id="Path_506_1_" d="M-42.3-17.64a5.2,5.2,0,0,0-1.28-3.8,4.56,4.56,0,0,0-3.46-1.32,4.856,4.856,0,0,0-3.73,1.57,5.775,5.775,0,0,0-1.48,4.1,5.352,5.352,0,0,0,1.39,3.94,5.245,5.245,0,0,0,3.91,1.41,7.568,7.568,0,0,0,2.46-.37,8.069,8.069,0,0,0,2.18-1.18l-1.33-1.78a5.735,5.735,0,0,1-1.56.84,4.162,4.162,0,0,1-1.26.26,2.9,2.9,0,0,1-1.96-.6,2.514,2.514,0,0,1-.8-1.82h6.92v-1.25Zm-2.84-.67h-4.09a3.041,3.041,0,0,1,.74-1.71,1.9,1.9,0,0,1,1.43-.64,1.825,1.825,0,0,1,1.44.55A2.69,2.69,0,0,1-45.14-18.31Z" transform="translate(11873.707 1879.482)" fill="#fff"/>
        <path id="Path_507_1_" d="M-33.08-27.17v5.91h-.04a2.711,2.711,0,0,0-1.13-1.12,3.764,3.764,0,0,0-1.74-.37,4.329,4.329,0,0,0-3.47,1.57A6.244,6.244,0,0,0-40.78-17a5.706,5.706,0,0,0,1.2,3.88,4.307,4.307,0,0,0,5.08.96,3.829,3.829,0,0,0,1.38-1.3h.05v1.48h3.06V-27.17h-3.07Zm.06,10.11a3.319,3.319,0,0,1-.65,2.15,1.767,1.767,0,0,1-.3.31,2.187,2.187,0,0,1-3.08-.27,3.513,3.513,0,0,1-.61-2.24,3.95,3.95,0,0,1,.63-2.39,1.8,1.8,0,0,1,.26-.29,2.2,2.2,0,0,1,3.12.11,2.5,2.5,0,0,1,.63,1.75v.87Z" transform="translate(11873.707 1879.482)" fill="#fff"/>
        <path id="Path_508_1_" d="M-27.1-22.49v10.5h3.05v-10.5Zm2.85-4.33a1.888,1.888,0,0,0-1.3-.46,1.81,1.81,0,0,0-1.3.46,1.568,1.568,0,0,0-.51,1.22,1.581,1.581,0,0,0,.51,1.21,1.793,1.793,0,0,0,1.3.49,1.785,1.785,0,0,0,1.3-.48l.01-.01A1.72,1.72,0,0,0-24.25-26.82Z" transform="translate(11873.707 1879.482)" fill="#fff"/>
        <path id="Path_509_1_" d="M-9.89-12.73a10.6,10.6,0,0,1-2.2.76,10.528,10.528,0,0,1-2.31.23,6.608,6.608,0,0,1-7.21-5.95A6.368,6.368,0,0,1-21.6-19a7.523,7.523,0,0,1,2.1-5.45,7.358,7.358,0,0,1,5.52-2.16,11.275,11.275,0,0,1,2.09.18,11.35,11.35,0,0,1,1.89.55l-.96,2.53a7.048,7.048,0,0,0-1.42-.43,8.254,8.254,0,0,0-1.49-.13,4.335,4.335,0,0,0-3.12,1.26,4.507,4.507,0,0,0-1.3,3.42,5.021,5.021,0,0,0,1.14,3.47,4.026,4.026,0,0,0,3.14,1.25,6.264,6.264,0,0,0,1.36-.18,7.063,7.063,0,0,0,1.61-.59Z" transform="translate(11873.707 1879.482)" fill="#fff"/>
        <path id="Path_510_1_" d="M1.27-21.3a5.48,5.48,0,0,0-4.06-1.46,5.741,5.741,0,0,0-4.18,1.47A5.424,5.424,0,0,0-8.52-17.2a5.363,5.363,0,0,0,1.48,3.99,5.581,5.581,0,0,0,4.09,1.48,5.611,5.611,0,0,0,.82,0,5.271,5.271,0,0,0,4.87-5.66A5.227,5.227,0,0,0,1.27-21.3ZM-1-14.91a2.123,2.123,0,0,1-1.83.82,2.233,2.233,0,0,1-1.91-.81,3.56,3.56,0,0,1-.64-2.35,3.607,3.607,0,0,1,.66-2.32,2.275,2.275,0,0,1,1.88-.83A2.2,2.2,0,0,1-1-19.62a3.6,3.6,0,0,1,.62,2.3A3.952,3.952,0,0,1-1-14.91Z" transform="translate(11873.707 1879.482)" fill="#fff"/>
        <path id="Path_511_1_" d="M15.02-11.99H11.97v-5.86a3.282,3.282,0,0,0-.45-1.91,1.59,1.59,0,0,0-1.37-.64,1.834,1.834,0,0,0-1.46.68,2.564,2.564,0,0,0-.58,1.74v5.99H5.05v-10.5H8.11v1.67h.04a3.855,3.855,0,0,1,1.43-1.46,3.952,3.952,0,0,1,1.96-.48,3.149,3.149,0,0,1,2.62,1.09,5.106,5.106,0,0,1,.88,3.24V-12Z" transform="translate(11873.707 1879.482)" fill="#fff"/>
        <path id="Path_512_1_" d="M16.77-12.87l1.27-2.06a5.551,5.551,0,0,0,1.26.7,4.413,4.413,0,0,0,1.61.29,2.326,2.326,0,0,0,1.1-.24.781.781,0,0,0,.42-.74.761.761,0,0,0-.33-.64,3.78,3.78,0,0,0-1.22-.43,6.2,6.2,0,0,1-2.81-1.18,2.692,2.692,0,0,1-.85-2.11,2.994,2.994,0,0,1,1.26-2.52,4.985,4.985,0,0,1,3.1-.94,6.718,6.718,0,0,1,1.79.24,5.876,5.876,0,0,1,1.59.73l-1.15,1.98a5.318,5.318,0,0,0-1.2-.58,3.41,3.41,0,0,0-1.14-.19,1.979,1.979,0,0,0-1.09.26.76.76,0,0,0-.41.67.746.746,0,0,0,.37.67,5.2,5.2,0,0,0,1.44.43,5.364,5.364,0,0,1,2.61,1.15,2.822,2.822,0,0,1,.8,2.12,3.165,3.165,0,0,1-1.2,2.57,4.892,4.892,0,0,1-3.18.96A8.132,8.132,0,0,1,18.73-12,8.2,8.2,0,0,1,16.77-12.87Z" transform="translate(11873.707 1879.482)" fill="#fff"/>
        <path id="Path_513_1_" d="M36.99-11.99H33.94V-13.6h-.05a3.913,3.913,0,0,1-1.4,1.4,3.669,3.669,0,0,1-1.83.47,3.312,3.312,0,0,1-2.74-1.11,5.158,5.158,0,0,1-.91-3.32V-22.5h3.05v6.05a2.823,2.823,0,0,0,.47,1.76,1.648,1.648,0,0,0,1.39.59,1.841,1.841,0,0,0,1.47-.65,2.581,2.581,0,0,0,.55-1.75v-6.01h3.05V-12h0Z" transform="translate(11873.707 1879.482)" fill="#fff"/>
        <path id="Path_514_1_" d="M39.89-11.99V-27.18h3.06v15.19H39.89Z" transform="translate(11873.707 1879.482)" fill="#fff"/>
        <path id="Path_515_1_" d="M52.29-12.16a4.893,4.893,0,0,1-1.07.32,6.957,6.957,0,0,1-1.2.11,3.507,3.507,0,0,1-2.54-.83,3.291,3.291,0,0,1-.86-2.45v-5.23H44.9v-2.27h1.72v-2.36l3.05-.88v3.24h2.4v2.27h-2.4v5.02a1.4,1.4,0,0,0,.25.93,1.008,1.008,0,0,0,.77.29,2.22,2.22,0,0,0,.51-.06,2,2,0,0,0,.46-.18Z" transform="translate(11873.707 1879.482)" fill="#fff"/>
        <g id="Group_356_1_" transform="translate(11873.22 1900.894)">
          <path id="Path_516_1_" d="M-67.01-26.08h-2.81v2.24h2.58v1.07h-2.58v3.14H-71.1v-7.52h4.08v1.08h.01Z" fill="#f6fcff"/>
          <path id="Path_517_1_" d="M-64.29-19.63h-1.28v-7.53h1.28Z" fill="#f6fcff"/>
          <path id="Path_518_1_" d="M-55.92-19.63h-1.39l-3.5-5.38a2.633,2.633,0,0,1-.18-.3c-.05-.09-.1-.17-.13-.24h-.02c.01.11.02.24.03.44s.01.42.01.68v4.81h-1.24v-7.53h1.48l3.38,5.26a2.9,2.9,0,0,1,.19.31c.05.1.11.18.14.26h.02q-.015-.165-.03-.42c-.01-.18-.01-.39-.01-.65v-4.75h1.23l.02,7.51Z" fill="#f6fcff"/>
          <path id="Path_519_1_" d="M-53.96-19.63v-7.53h2.37a4.331,4.331,0,0,1,3,.92,3.555,3.555,0,0,1,.99,2.75,3.7,3.7,0,0,1-1.1,2.81,4.076,4.076,0,0,1-2.93,1.06h-2.33Zm1.28-6.45v5.37h.98a2.76,2.76,0,0,0,2.03-.73,2.76,2.76,0,0,0,.73-2.03,2.562,2.562,0,0,0-.69-1.94,2.807,2.807,0,0,0-2.04-.67Z" fill="#f6fcff"/>
          <path id="Path_520_1_" d="M-43.17-19.63v-7.53h2.37a4.331,4.331,0,0,1,3,.92,3.555,3.555,0,0,1,.99,2.75,3.7,3.7,0,0,1-1.1,2.81,4.084,4.084,0,0,1-2.94,1.06h-2.33v-.01Zm1.28-6.45v5.37h.98a2.76,2.76,0,0,0,2.03-.73,2.76,2.76,0,0,0,.73-2.03,2.562,2.562,0,0,0-.69-1.94,2.807,2.807,0,0,0-2.04-.67Z" fill="#f6fcff"/>
          <path id="Path_521_1_" d="M-32.23-19.5a3.39,3.39,0,0,1-2.6-1.06,3.8,3.8,0,0,1-.99-2.74,4.122,4.122,0,0,1,1-2.89,3.475,3.475,0,0,1,2.7-1.09,3.306,3.306,0,0,1,2.56,1.06,3.894,3.894,0,0,1,.97,2.77,4.061,4.061,0,0,1-1,2.89A3.491,3.491,0,0,1-32.23-19.5Zm.02-1.12a2.087,2.087,0,0,0,1.68-.73,3.054,3.054,0,0,0,.62-2.02,3.249,3.249,0,0,0-.6-2.07,2,2,0,0,0-1.64-.74,2.066,2.066,0,0,0-1.68.77,3.5,3.5,0,0,0-.01,4.02,1.958,1.958,0,0,0,1.63.77Z" fill="#f6fcff"/>
          <path id="Path_522_1_" d="M-21.61-20.01a5.417,5.417,0,0,1-1.11.39,5.809,5.809,0,0,1-1.17.12,3.586,3.586,0,0,1-2.71-1,3.8,3.8,0,0,1-.98-2.77,3.962,3.962,0,0,1,1.09-2.89,3.789,3.789,0,0,1,2.83-1.11,5.335,5.335,0,0,1,1.05.1,5.446,5.446,0,0,1,.97.3l-.42,1.05a5.319,5.319,0,0,0-.77-.25,4.447,4.447,0,0,0-.81-.08,2.468,2.468,0,0,0-1.86.76,2.822,2.822,0,0,0-.73,2.05,2.884,2.884,0,0,0,.67,2.01,2.308,2.308,0,0,0,1.8.74,3.576,3.576,0,0,0,.8-.1,3.326,3.326,0,0,0,.86-.33Z" fill="#f6fcff"/>
          <path id="Path_523_1_" d="M-15.42-26.08h-2.17v6.45h-1.28v-6.45h-2.16v-1.08h5.59v1.08h.02Z" fill="#f6fcff"/>
          <path id="Path_524_1_" d="M-11.6-19.5a3.39,3.39,0,0,1-2.6-1.06,3.8,3.8,0,0,1-.99-2.74,4.122,4.122,0,0,1,1-2.89,3.475,3.475,0,0,1,2.7-1.09,3.306,3.306,0,0,1,2.56,1.06,3.894,3.894,0,0,1,.97,2.77,4.061,4.061,0,0,1-1,2.89A3.462,3.462,0,0,1-11.6-19.5Zm.01-1.12a2.087,2.087,0,0,0,1.68-.73,3.054,3.054,0,0,0,.62-2.02,3.249,3.249,0,0,0-.6-2.07,2,2,0,0,0-1.64-.74,2.066,2.066,0,0,0-1.68.77,3.487,3.487,0,0,0-.01,4.02,1.971,1.971,0,0,0,1.63.77Z" fill="#f6fcff"/>
          <path id="Path_525_1_" d="M-7.08-20.17l.57-.98a3.855,3.855,0,0,0,.96.46,3.626,3.626,0,0,0,.98.14,1.649,1.649,0,0,0,1.01-.28.932.932,0,0,0,.37-.8.968.968,0,0,0-.31-.75,2.89,2.89,0,0,0-1.05-.49,4.056,4.056,0,0,1-1.7-.84,1.78,1.78,0,0,1-.54-1.38,2.022,2.022,0,0,1,.7-1.56,2.767,2.767,0,0,1,1.91-.62,4.7,4.7,0,0,1,1.05.12,4.451,4.451,0,0,1,1,.37l-.5,1a4.137,4.137,0,0,0-.82-.33,3.586,3.586,0,0,0-.8-.11,1.464,1.464,0,0,0-.93.26.849.849,0,0,0-.34.74.806.806,0,0,0,.31.66,3.552,3.552,0,0,0,1.07.48,3.7,3.7,0,0,1,1.7.88,1.993,1.993,0,0,1,.51,1.45,2.08,2.08,0,0,1-.7,1.62,2.9,2.9,0,0,1-2.02.64,5.057,5.057,0,0,1-1.28-.17A5.921,5.921,0,0,1-7.08-20.17Z" fill="#f6fcff"/>
          <path id="Path_526_1_" d="M5.25-19.63H3.77l-1.15-2a2.8,2.8,0,0,0-.55-.73.934.934,0,0,0-.6-.21H.8v2.94H-.48v-7.52H1.97a2.962,2.962,0,0,1,1.85.52,1.881,1.881,0,0,1,.67,1.57,1.953,1.953,0,0,1-.43,1.31,2.357,2.357,0,0,1-1.17.79v.02a1.457,1.457,0,0,1,.51.37,3.311,3.311,0,0,1,.44.6ZM.82-26.12v2.52h.97a1.373,1.373,0,0,0,.99-.37,1.274,1.274,0,0,0,.38-.96,1.109,1.109,0,0,0-.34-.86,1.492,1.492,0,0,0-1-.31l-1-.02Z" fill="#f6fcff"/>
          <path id="Path_527_1_" d="M13.37-26.08H10.56v2.24h2.58v1.07H10.56v3.14H9.28v-7.52h4.08l.01,1.07Z" fill="#f6fcff"/>
          <path id="Path_528_1_" d="M17.92-19.5a3.39,3.39,0,0,1-2.6-1.06,3.8,3.8,0,0,1-.99-2.74,4.122,4.122,0,0,1,1-2.89,3.475,3.475,0,0,1,2.7-1.09,3.306,3.306,0,0,1,2.56,1.06,3.894,3.894,0,0,1,.97,2.77,4.061,4.061,0,0,1-1,2.89A3.491,3.491,0,0,1,17.92-19.5Zm.02-1.12a2.087,2.087,0,0,0,1.68-.73,3.054,3.054,0,0,0,.62-2.02,3.249,3.249,0,0,0-.6-2.07A2,2,0,0,0,18-26.18a2.066,2.066,0,0,0-1.68.77,3.5,3.5,0,0,0-.01,4.02,1.946,1.946,0,0,0,1.63.77Z" fill="#f6fcff"/>
          <path id="Path_529_1_" d="M28.76-19.63H27.29l-1.15-2a2.8,2.8,0,0,0-.55-.73.934.934,0,0,0-.6-.21h-.66v2.94H23.06v-7.52h2.45a2.962,2.962,0,0,1,1.85.52,1.881,1.881,0,0,1,.67,1.57,1.953,1.953,0,0,1-.43,1.31,2.357,2.357,0,0,1-1.17.79v.02a1.457,1.457,0,0,1,.51.37,3.311,3.311,0,0,1,.44.6Zm-4.44-6.49v2.52h.97a1.373,1.373,0,0,0,.99-.37,1.238,1.238,0,0,0,.38-.96,1.109,1.109,0,0,0-.34-.86,1.492,1.492,0,0,0-1-.31l-1-.02Z" fill="#f6fcff"/>
          <path id="Path_530_1_" d="M38.07-27.16l-2.47,4.8v2.73H34.32v-2.7l-2.4-4.83h1.45l1.46,3.12c.01.02.03.08.06.17s.08.21.12.36h.02a1.382,1.382,0,0,1,.08-.27c.03-.09.07-.17.11-.26l1.51-3.13,1.34.01Z" fill="#f6fcff"/>
          <path id="Path_531_1_" d="M41.83-19.5a3.39,3.39,0,0,1-2.6-1.06,3.8,3.8,0,0,1-.99-2.74,4.122,4.122,0,0,1,1-2.89,3.475,3.475,0,0,1,2.7-1.09,3.306,3.306,0,0,1,2.56,1.06,3.9,3.9,0,0,1,.97,2.77,4.061,4.061,0,0,1-1,2.89A3.477,3.477,0,0,1,41.83-19.5Zm.01-1.12a2.087,2.087,0,0,0,1.68-.73,3.054,3.054,0,0,0,.62-2.02,3.249,3.249,0,0,0-.6-2.07,2,2,0,0,0-1.64-.74,2.066,2.066,0,0,0-1.68.77,3.487,3.487,0,0,0-.01,4.02,1.971,1.971,0,0,0,1.63.77Z" fill="#f6fcff"/>
          <path id="Path_532_1_" d="M52.77-22.78a3.612,3.612,0,0,1-.75,2.47,3.46,3.46,0,0,1-4.44.03,3.49,3.49,0,0,1-.73-2.39v-4.47h1.28v4.46a2.422,2.422,0,0,0,.43,1.56,1.558,1.558,0,0,0,1.28.52,1.493,1.493,0,0,0,1.24-.5,2.318,2.318,0,0,0,.42-1.51v-4.53h1.28l-.01,4.36Z" fill="#f6fcff"/>
        </g>
      </g>
    </g>
  </g>
</svg>
