<svg id="mail_icon" xmlns="http://www.w3.org/2000/svg" width="14.273" height="10.195" viewBox="0 0 14.273 10.195">
  <path id="Path_57" data-name="Path 57" d="M14.744,16.2H3.529A1.529,1.529,0,0,1,2,14.666V7.529A1.529,1.529,0,0,1,3.529,6H14.744a1.529,1.529,0,0,1,1.529,1.529v7.137A1.529,1.529,0,0,1,14.744,16.2ZM3.529,7.02a.51.51,0,0,0-.51.51v7.137a.51.51,0,0,0,.51.51H14.744a.51.51,0,0,0,.51-.51V7.529a.51.51,0,0,0-.51-.51Z" transform="translate(-2 -6)" fill="#fff"/>
  <path id="Path_58" data-name="Path 58" d="M9.665,12.123a.51.51,0,0,1-.28-.087L3.267,7.958a.51.51,0,0,1,.561-.846L9.945,11.19a.51.51,0,0,1-.28.933Z" transform="translate(-2.528 -6.515)" fill="#fff"/>
  <path id="Path_59" data-name="Path 59" d="M15.509,12.113a.51.51,0,0,1-.285-.933L21.34,7.1a.51.51,0,0,1,.566.846l-6.117,4.078A.51.51,0,0,1,15.509,12.113Z" transform="translate(-8.372 -6.505)" fill="#fff"/>
</svg>
