<svg id="selectbooktime" xmlns="http://www.w3.org/2000/svg" width="12.806" height="12.806" viewBox="0 0 12.806 12.806">
  <path id="Path_15" data-name="Path 15" d="M9.4,15.806a6.4,6.4,0,1,1,6.4-6.4A6.4,6.4,0,0,1,9.4,15.806Zm0-11.739A5.336,5.336,0,1,0,14.739,9.4,5.336,5.336,0,0,0,9.4,4.067Z" transform="translate(-3 -3)" fill="#abadac"/>
  <path id="Path_16" data-name="Path 16" d="M17.2,15.136A.534.534,0,0,1,16.844,15l-2.668-2.4A.534.534,0,0,1,14,12.2V9.534a.534.534,0,0,1,1.067,0v2.428L17.559,14.2a.534.534,0,0,1-.358.934Z" transform="translate(-8.13 -5.798)" fill="#abadac"/>
</svg>
