<svg xmlns="http://www.w3.org/2000/svg" width="57.158" height="63.432" viewBox="0 0 57.158 63.432">
  <path id="Path_28" data-name="Path 28" d="M54.578,39.731a3.434,3.434,0,0,1,3.343,2.462l4.76,15.457c.632,2.054,2.2,3.433,3.9,3.433,1.8,0,3.4-1.487,3.978-3.7l9.133-34.9A18.183,18.183,0,0,0,77.789,8.478a11.069,11.069,0,0,0-14-4.156L57.815,7a7.923,7.923,0,0,1-6.473,0l-5.97-2.675a11.07,11.07,0,0,0-14,4.156,18.183,18.183,0,0,0-1.905,14.011l9.133,34.9c.579,2.212,2.178,3.7,3.978,3.7,1.7,0,3.271-1.379,3.9-3.433l4.76-15.457a3.434,3.434,0,0,1,3.343-2.462M66.584,63.918c-2.96,0-5.621-2.185-6.621-5.435L55.2,43.026a.654.654,0,0,0-1.249,0l-4.76,15.457c-1,3.25-3.661,5.435-6.621,5.435-3.114,0-5.82-2.338-6.73-5.818L26.71,23.2a21.025,21.025,0,0,1,2.225-16.2,13.925,13.925,0,0,1,17.6-5.271l5.969,2.676a5.069,5.069,0,0,0,4.141,0l5.969-2.676a13.923,13.923,0,0,1,17.6,5.271,21.025,21.025,0,0,1,2.225,16.2L73.313,58.1c-.91,3.48-3.616,5.818-6.73,5.818" transform="translate(-25.999 -0.486)" fill="#0f5278" fill-rule="evenodd"/>
</svg>
