<svg id="twitter_icon" xmlns="http://www.w3.org/2000/svg" width="25.856" height="25.856" viewBox="0 0 25.856 25.856">
  <path id="Path_62" data-name="Path 62" d="M24.136,11.166A12.928,12.928,0,1,0,37.064,24.094,12.943,12.943,0,0,0,24.136,11.166Zm0,24.581A11.653,11.653,0,1,1,35.789,24.094,11.666,11.666,0,0,1,24.136,35.747Z" transform="translate(-11.208 -11.166)" fill="#fff"/>
  <path id="Path_63" data-name="Path 63" d="M50.1,45.055a2.809,2.809,0,0,0,1.344-1.588,4,4,0,0,1-1.908.653l-.02.011a3.081,3.081,0,0,0-5.26,2.831l-.015-.022s-3.3.189-6.412-3.215a3.141,3.141,0,0,0,.98,4.126,3.222,3.222,0,0,1-1.427-.378,3.3,3.3,0,0,0,2.492,3.06,3.134,3.134,0,0,1-1.375.034,3.072,3.072,0,0,0,2.854,2.2,6.327,6.327,0,0,1-4.5,1.255,8.231,8.231,0,0,0,5.5,1.358,8.437,8.437,0,0,0,7.22-5.174,7.617,7.617,0,0,0,.757-3.993,4.041,4.041,0,0,0,1.478-1.56c-.278.083-1.31.335-1.694.429Z" transform="translate(-31.403 -36.339)" fill="#fff"/>
</svg>
